<?xml version="1.0" encoding="utf-8"?>
<!-- Generator: Adobe Illustrator 27.0.1, SVG Export Plug-In . SVG Version: 6.00 Build 0)  -->
<svg version="1.1" id="Layer_1" xmlns="http://www.w3.org/2000/svg" xmlns:xlink="http://www.w3.org/1999/xlink" x="0px" y="0px"
	 viewBox="0 0 1141.27 394.59" style="enable-background:new 0 0 1141.27 394.59;" xml:space="preserve">
<style type="text/css">
	.st0{fill:#06415B;}
	.st1{fill:#FFFFFF;}
	.st2{fill:#3D4354;}
	.st3{fill:#003B55;}
	.st4{fill:#00AEA8;}
	.st5{fill:url(#SVGID_00000139998802534067950120000016226406413947033279_);}
	.st6{fill:url(#SVGID_00000124127832934342355110000000225894221426128790_);}
	.st7{fill:#EA7C53;}
	
		.st8{clip-path:url(#SVGID_00000109030944208427884230000017506256880596022461_);fill:url(#SVGID_00000103250807353968521640000009584543139199647128_);}
	.st9{fill:#4588C7;}
	.st10{fill:url(#SVGID_00000083776484110849362900000000025255918358653347_);}
	.st11{fill:#915788;}
	.st12{fill:url(#SVGID_00000152959520177441378880000004759026352973582467_);}
	.st13{fill:url(#SVGID_00000116216924637766935920000004860412213643443380_);}
	
		.st14{clip-path:url(#SVGID_00000045606871129494543790000002304277154776755132_);fill:url(#SVGID_00000052098584953238265010000005612385195682852015_);}
	.st15{fill:url(#SVGID_00000021097996236682137120000016142278897919919755_);}
	.st16{fill:#F47D51;}
	.st17{fill:#468ECC;}
	.st18{fill:#97568E;}
	.st19{fill:none;}
	.st20{fill:none;stroke:#003B55;stroke-width:0;stroke-linecap:round;stroke-linejoin:round;}
	.st21{fill:#00ADA7;}
	.st22{fill:url(#SVGID_00000095325044985222734280000009470577982154175374_);}
	.st23{fill:url(#SVGID_00000005226577209672669190000013096706339196323494_);}
	.st24{fill:url(#SVGID_00000183949300400755968260000016469548885084082619_);}
	.st25{fill:url(#SVGID_00000075866559689850019310000007957763154097519794_);}
	.st26{fill:url(#SVGID_00000093167302976705621770000005033951290173457342_);}
	.st27{fill:url(#SVGID_00000114040644708347398190000003719939626153040305_);}
	.st28{fill:url(#SVGID_00000023982345906126617550000012773578016421955000_);}
	.st29{fill:url(#SVGID_00000026150662930858366440000003947598341075515781_);}
	.st30{fill:#E97C52;}
	.st31{fill:url(#SVGID_00000008855171320859468750000009486903221534087856_);}
	.st32{fill:url(#SVGID_00000090280433238740300160000010599608705080190372_);}
	.st33{fill:url(#SVGID_00000176762425141689986600000018053446291966260371_);}
	.st34{fill:#4487C7;}
	.st35{fill:url(#SVGID_00000031165930287491704400000013224771414411171494_);}
	.st36{fill:url(#SVGID_00000062183357649032354100000011182891675949355662_);}
	.st37{fill:url(#SVGID_00000058590897093711871730000002552690652340401302_);}
	.st38{fill:url(#SVGID_00000008147548147533632470000000252848412744176058_);}
	.st39{fill:url(#SVGID_00000101823575080776259910000005783028516998002092_);}
	.st40{fill:url(#SVGID_00000144324267733448343240000002875132336188193194_);}
	.st41{fill:url(#SVGID_00000004526295557163525440000007553381389503066558_);}
	.st42{fill:#915787;}
	.st43{fill:url(#SVGID_00000051365877730413904580000014147303206106228387_);}
	.st44{fill:url(#SVGID_00000059988718285156072300000002253527669198266533_);}
	.st45{fill:url(#SVGID_00000048463484492520331860000007257726964311223943_);}
	.st46{fill:url(#SVGID_00000001633589672431614570000011737942975463223974_);}
	.st47{fill:url(#SVGID_00000063601684694678091740000009748848935693069499_);}
	.st48{fill:url(#SVGID_00000183248692593488494250000004611704805542242488_);}
	.st49{fill:url(#SVGID_00000109749612385858084130000005746591093135116463_);}
	.st50{fill:url(#SVGID_00000175300439117249871250000012051906751062662534_);}
	.st51{fill:url(#SVGID_00000074434710829473838680000009543194925233702574_);}
	.st52{fill:url(#SVGID_00000070118464170765718960000012452052565273650056_);}
	.st53{fill:url(#SVGID_00000090258688267535464390000015290609271669497277_);}
	.st54{fill:url(#SVGID_00000150819718356990916380000016490287361241102775_);}
	.st55{fill:url(#SVGID_00000176022422136915815870000001322131879546446239_);}
	.st56{fill:url(#SVGID_00000145745857703894478710000009374892986457544090_);}
	.st57{fill:url(#SVGID_00000174564537609280704320000005720554172995863181_);}
	.st58{fill:url(#SVGID_00000087390274471129904450000013961379163048540293_);}
	.st59{fill:url(#SVGID_00000121266261206951404010000018214345468826204342_);}
	.st60{fill:url(#SVGID_00000142139062336024720020000007420964565633975182_);}
	.st61{fill:url(#SVGID_00000085224932970742940340000007885614273506907277_);}
	.st62{fill:url(#SVGID_00000164499938971090864640000008930526165928009911_);}
	.st63{fill:url(#SVGID_00000154423490353702904400000010295474137969152149_);}
	.st64{fill:url(#SVGID_00000176750375732836400820000009983960194500541630_);}
	.st65{fill:url(#SVGID_00000127748249248919798800000007341611530241486465_);}
	.st66{fill:url(#SVGID_00000046335140566090780180000007607339737252355970_);}
	.st67{fill:url(#SVGID_00000013905263037374718870000012144633279206476965_);}
	.st68{fill:url(#SVGID_00000063592321051078335490000004929240078731920790_);}
	.st69{fill:url(#SVGID_00000183247125119735803330000016373119142900819869_);}
	.st70{fill:url(#SVGID_00000181071897276786033440000000117218084926704550_);}
	.st71{fill:url(#SVGID_00000158750647398310783990000010457360431704168883_);}
	.st72{fill:url(#SVGID_00000109713509260124556060000017387372843025571767_);}
	.st73{fill:url(#SVGID_00000117668477588071381650000007729248889306298271_);}
	.st74{fill:url(#SVGID_00000114770532446330724720000005979463033738609558_);}
	.st75{fill:url(#SVGID_00000009550257834513710010000010241750014346789818_);}
	.st76{fill:url(#SVGID_00000047782827475028882640000004284514860273477547_);}
	.st77{fill:url(#SVGID_00000168106209406628928770000003851235426535678853_);}
	.st78{fill:url(#SVGID_00000075841717047082691080000005330114139647011735_);}
	.st79{fill:#00ADA4;}
	.st80{fill:url(#SVGID_00000080206981402020100250000003079319807474085296_);}
	.st81{fill:url(#SVGID_00000106106647669319408120000006231897911571897497_);}
	.st82{fill:#E87B53;}
	
		.st83{clip-path:url(#SVGID_00000109740980750619896510000015271525152453441152_);fill:url(#SVGID_00000065044727357577741680000002810589215483237555_);}
	.st84{fill:#4386C6;}
	.st85{fill:url(#SVGID_00000046308318986166039780000008712198770147944077_);}
	.st86{fill:#915786;}
	.st87{fill:url(#SVGID_00000140730123486227210070000001874195607330960795_);}
	.st88{fill:url(#SVGID_00000114041766179157690340000011351098684868485045_);}
	
		.st89{clip-path:url(#SVGID_00000019665815604205822840000016178817901371595914_);fill:url(#SVGID_00000093871613880794179580000007367069589058330757_);}
	.st90{fill:url(#SVGID_00000075124525502087255090000017981375168182190779_);}
	.st91{fill:url(#SVGID_00000023966950335325108580000002625454812838077365_);}
	.st92{fill:url(#SVGID_00000010278498517491364690000001962860821845930161_);}
	
		.st93{clip-path:url(#SVGID_00000162313015692769403680000018146789932468734397_);fill:url(#SVGID_00000080926072110805415760000006502334604073581757_);}
	.st94{fill:url(#SVGID_00000142171473907202722490000006484297438557273753_);}
	.st95{opacity:0.22;}
	.st96{fill:#BFBEBE;}
	.st97{fill:none;stroke:#FFFFFF;stroke-miterlimit:10;}
	.st98{fill:#00B3AC;}
	.st99{fill:#2775BB;}
	.st100{fill:#74B3E2;}
	.st101{fill:#2772AF;}
	.st102{fill:#565E76;}
	.st103{fill:#2095F3;stroke:#FFFFFF;stroke-miterlimit:10;}
	.st104{fill:#2775BB;stroke:#FFFFFF;stroke-miterlimit:10;}
	.st105{fill:#00B6AE;stroke:#FFFFFF;stroke-miterlimit:10;}
</style>
<g>
	<path class="st0" d="M424.66,107.97c-67.95,0-120.8,54.74-120.8,120.8s54.74,120.8,120.8,120.8s120.8-54.74,120.8-120.8
		C547.35,160.82,492.61,107.97,424.66,107.97z M424.66,302.38c-39.64,0-71.73-32.09-71.73-71.73s32.09-71.73,71.73-71.73
		s71.73,32.09,71.73,71.73C498.28,268.41,464.3,302.38,424.66,302.38z"/>
	<path class="st0" d="M707.8,107.97c-33.98-5.66-66.06,3.78-90.6,22.65V68.33c0-18.88-15.1-32.09-32.09-32.09l0,0
		c-9.44,0-15.1,7.55-15.1,15.1V315.6c0,18.88,15.1,32.09,32.09,32.09l0,0c9.44,0,15.1-7.55,15.1-15.1v-5.66
		c20.76,15.1,45.3,24.54,71.73,24.54c71.73,0,128.35-62.29,120.8-135.9C804.06,160.82,760.65,117.4,707.8,107.97z M673.82,300.5
		c-33.98-7.55-56.63-39.64-56.63-73.62l0,0c0-26.43,13.21-49.08,35.86-60.4c54.74-26.43,107.59,13.21,107.59,64.18
		C762.54,274.07,721.01,309.94,673.82,300.5z"/>
	<path class="st0" d="M951.29,107.97c-67.95,0-120.8,54.74-120.8,120.8s54.74,120.8,120.8,120.8s120.8-54.74,120.8-120.8
		C1073.98,160.82,1019.24,107.97,951.29,107.97z M951.29,302.38c-39.64,0-71.73-32.09-71.73-71.73s32.09-71.73,71.73-71.73
		c39.64,0,71.73,32.09,71.73,71.73C1024.91,268.41,990.93,302.38,951.29,302.38z"/>
	<path class="st0" d="M322.73,330.7L188.71,196.68L300.08,85.31c5.66-5.66,1.89-15.1-5.66-15.1h-20.76
		c-16.99,0-33.98,7.55-45.3,18.88L128.31,189.13V102.3c0-18.88-15.1-32.09-32.09-32.09l0,0c-7.55,0-15.1,7.55-15.1,15.1V315.6
		c0,18.88,15.1,32.09,32.09,32.09l0,0c7.55,0,15.1-7.55,15.1-15.1v-49.08c0-15.1,5.66-28.31,15.1-37.75l13.21-13.21L251,326.92
		c11.33,11.33,28.31,18.88,45.3,18.88h20.76C324.62,345.8,328.39,336.36,322.73,330.7z"/>
</g>
</svg>
